<?xml version="1.0" encoding="UTF-8" standalone="no"?>
<svg
   xmlns:dc="http://purl.org/dc/elements/1.1/"
   xmlns:cc="http://creativecommons.org/ns#"
   xmlns:rdf="http://www.w3.org/1999/02/22-rdf-syntax-ns#"
   xmlns:svg="http://www.w3.org/2000/svg"
   xmlns="http://www.w3.org/2000/svg"
   id="svg5060"
   version="1.1"
   viewBox="0 0 11.4929 11.209468"
   height="11.209468mm"
   width="11.4929mm">
  <defs
     id="defs5054" />
  <metadata
     id="metadata5057">
    <rdf:RDF>
      <cc:Work
         rdf:about="">
        <dc:format>image/svg+xml</dc:format>
        <dc:type
           rdf:resource="http://purl.org/dc/dcmitype/StillImage" />
        <dc:title></dc:title>
      </cc:Work>
    </rdf:RDF>
  </metadata>
  <g
     transform="translate(-101.08769,-98.192981)"
     id="layer1">
    <path
       d="m 106.83374,98.192981 c -3.17289,0 -5.74605,2.572809 -5.74605,5.746749 0,2.53894 1.64642,4.69265 3.92995,5.45254 0.28751,0.0529 0.39229,-0.12453 0.39229,-0.27693 0,-0.13653 -0.005,-0.49777 -0.008,-0.9772 -1.59844,0.34713 -1.93569,-0.77047 -1.93569,-0.77047 -0.26141,-0.66392 -0.63818,-0.84066 -0.63818,-0.84066 -0.52176,-0.35631 0.0395,-0.34925 0.0395,-0.34925 0.57679,0.0406 0.88018,0.59231 0.88018,0.59231 0.51259,0.87806 1.34514,0.62442 1.67252,0.47731 0.0522,-0.37112 0.20073,-0.62442 0.36477,-0.768 -1.27599,-0.14499 -2.61761,-0.63817 -2.61761,-2.84021 0,-0.62724 0.22402,-1.14053 0.59161,-1.542 -0.0593,-0.14534 -0.25647,-0.72989 0.0564,-1.52082 0,0 0.48225,-0.15452 1.58009,0.58914 0.45826,-0.12771 0.95003,-0.19121 1.43863,-0.19368 0.48824,0.002 0.97966,0.066 1.43863,0.19368 1.09713,-0.74366 1.57867,-0.58914 1.57867,-0.58914 0.31363,0.79093 0.11642,1.37548 0.0575,1.52082 0.3683,0.40147 0.59054,0.91476 0.59054,1.542 0,2.20768 -1.34373,2.69345 -2.6236,2.83563 0.20602,0.17744 0.38982,0.5281 0.38982,1.06397 0,0.76835 -0.007,1.38818 -0.007,1.57657 0,0.15381 0.10371,0.33267 0.39511,0.27657 2.28177,-0.76164 3.92677,-2.91394 3.92677,-5.45218 0,-3.17394 -2.57316,-5.746749 -5.7471,-5.746749"
       style="fill:#ffffff;fill-opacity:1;fill-rule:evenodd;stroke:none;stroke-width:0.03527778"
       id="path114" />
  </g>
</svg>
