<?xml version="1.0" encoding="UTF-8" standalone="no"?>
<svg
   xmlns:dc="http://purl.org/dc/elements/1.1/"
   xmlns:cc="http://creativecommons.org/ns#"
   xmlns:rdf="http://www.w3.org/1999/02/22-rdf-syntax-ns#"
   xmlns:svg="http://www.w3.org/2000/svg"
   xmlns="http://www.w3.org/2000/svg"
   id="svg8"
   version="1.1"
   viewBox="0 0 316.17322 34.334316"
   height="34.334316mm"
   width="316.17322mm">
  <defs
     id="defs2" />
  <metadata
     id="metadata5">
    <rdf:RDF>
      <cc:Work
         rdf:about="">
        <dc:format>image/svg+xml</dc:format>
        <dc:type
           rdf:resource="http://purl.org/dc/dcmitype/StillImage" />
        <dc:title></dc:title>
      </cc:Work>
    </rdf:RDF>
  </metadata>
  <g
     transform="translate(350.07598,-109.51663)"
     id="layer1">
    <g
       id="flowRoot4485"
       style="font-style:normal;font-weight:normal;font-size:16.25px;line-height:1000%;font-family:Sans;text-align:center;letter-spacing:0px;word-spacing:0px;text-anchor:middle;fill:#ffffff;fill-opacity:1;stroke:none;stroke-width:1px;stroke-linecap:butt;stroke-linejoin:miter;stroke-opacity:1"
       transform="matrix(2.7440013,0,0,2.7440013,1857.0944,-1007.0392)"
       aria-label="name hacker">
      <path
         id="path4516"
         style="font-style:normal;font-variant:normal;font-weight:normal;font-stretch:normal;font-family:Orbitron;-inkscape-font-specification:Orbitron;fill:#ffffff"
         d="m -796.887,409.99541 h -7.475 v 9.425 h 1.755 v -7.3125 c 0,-0.195 0.1625,-0.3575 0.3575,-0.3575 h 5.3625 c 0.195,0 0.3575,0.1625 0.3575,0.3575 v 7.3125 h 1.755 v -7.3125 c 0,-1.17 -0.9425,-2.1125 -2.1125,-2.1125 z" />
      <path
         id="path4518"
         style="font-style:normal;font-variant:normal;font-weight:normal;font-stretch:normal;font-family:Orbitron;-inkscape-font-specification:Orbitron;fill:#ffffff"
         d="m -785.62067,409.99541 h -7.475 v 1.755 h 7.475 c 0.195,0 0.3575,0.1625 0.3575,0.3575 v 1.7225 h -7.8325 v 3.4775 c 0,1.17 0.9425,2.1125 2.1125,2.1125 h 7.475 v -7.3125 c 0,-1.17 -0.9425,-2.1125 -2.1125,-2.1125 z m 0.3575,7.67 h -5.72 c -0.195,0 -0.3575,-0.1625 -0.3575,-0.3575 v -1.7225 h 6.0775 z" />
      <path
         id="path4520"
         style="font-style:normal;font-variant:normal;font-weight:normal;font-stretch:normal;font-family:Orbitron;-inkscape-font-specification:Orbitron;fill:#ffffff"
         d="m -770.19917,409.99541 h -12.04125 v 9.425 h 1.755 v -7.3125 c 0,-0.195 0.1625,-0.3575 0.3575,-0.3575 h 3.7375 c 0.195,0 0.3575,0.1625 0.3575,0.3575 v 7.3125 h 1.755 v -7.3125 c 0,-0.195 0.1625,-0.3575 0.3575,-0.3575 h 3.72125 c 0.21125,0 0.37375,0.1625 0.37375,0.3575 v 7.3125 h 1.73875 v -7.3125 c 0,-1.17 -0.9425,-2.1125 -2.1125,-2.1125 z" />
      <path
         id="path4522"
         style="font-style:normal;font-variant:normal;font-weight:normal;font-stretch:normal;font-family:Orbitron;-inkscape-font-specification:Orbitron;fill:#ffffff"
         d="m -758.91329,409.99541 h -5.3625 c -1.17,0 -2.1125,0.9425 -2.1125,2.1125 v 5.2 c 0,1.17 0.9425,2.1125 2.1125,2.1125 h 7.475 v -1.755 h -7.475 c -0.195,0 -0.3575,-0.1625 -0.3575,-0.3575 v -1.7225 h 7.8325 v -3.4775 c 0,-1.17 -0.9425,-2.1125 -2.1125,-2.1125 z m -5.72,3.835 v -1.7225 c 0,-0.195 0.1625,-0.3575 0.3575,-0.3575 h 5.3625 c 0.195,0 0.3575,0.1625 0.3575,0.3575 v 1.7225 z" />
      <path
         id="path4524"
         style="font-style:normal;font-variant:normal;font-weight:normal;font-stretch:normal;font-family:Orbitron;-inkscape-font-specification:Orbitron;fill:#ffffff"
         d="m -742.93192,409.99541 h -5.72 v -3.0875 h -1.755 v 12.5125 h 1.755 v -7.3125 c 0,-0.195 0.1625,-0.3575 0.3575,-0.3575 h 5.3625 c 0.195,0 0.3575,0.1625 0.3575,0.3575 v 7.3125 h 1.755 v -7.3125 c 0,-1.17 -0.95875,-2.1125 -2.1125,-2.1125 z" />
      <path
         id="path4526"
         style="font-style:normal;font-variant:normal;font-weight:normal;font-stretch:normal;font-family:Orbitron;-inkscape-font-specification:Orbitron;fill:#ffffff"
         d="m -732.10993,409.99541 h -7.475 v 1.755 h 7.475 c 0.195,0 0.3575,0.1625 0.3575,0.3575 v 1.7225 h -7.8325 v 3.4775 c 0,1.17 0.9425,2.1125 2.1125,2.1125 h 7.475 v -7.3125 c 0,-1.17 -0.9425,-2.1125 -2.1125,-2.1125 z m 0.3575,7.67 h -5.72 c -0.195,0 -0.3575,-0.1625 -0.3575,-0.3575 v -1.7225 h 6.0775 z" />
      <path
         id="path4528"
         style="font-style:normal;font-variant:normal;font-weight:normal;font-stretch:normal;font-family:Orbitron;-inkscape-font-specification:Orbitron;fill:#ffffff"
         d="m -726.4755,417.66541 c -0.195,0 -0.3575,-0.1625 -0.3575,-0.3575 v -5.2 c 0,-0.195 0.1625,-0.3575 0.3575,-0.3575 h 7.4425 v -1.755 h -7.4425 c -1.17,0 -2.1125,0.9425 -2.1125,2.1125 v 5.2 c 0,1.17 0.9425,2.1125 2.1125,2.1125 h 7.475 v -1.755 z" />
      <path
         id="path4530"
         style="font-style:normal;font-variant:normal;font-weight:normal;font-stretch:normal;font-family:Orbitron;-inkscape-font-specification:Orbitron;fill:#ffffff"
         d="m -710.10058,409.99541 -3.52625,3.835 h -2.1125 v -6.9225 h -1.755 v 12.5125 h 1.755 v -3.835 h 2.1125 l 3.52625,3.835 h 2.08 v -0.24375 l -4.04625,-4.46875 4.04625,-4.46875 v -0.24375 z" />
      <path
         id="path4532"
         style="font-style:normal;font-variant:normal;font-weight:normal;font-stretch:normal;font-family:Orbitron;-inkscape-font-specification:Orbitron;fill:#ffffff"
         d="m -699.9753,409.99541 h -5.3625 c -1.17,0 -2.1125,0.9425 -2.1125,2.1125 v 5.2 c 0,1.17 0.9425,2.1125 2.1125,2.1125 h 7.475 v -1.755 h -7.475 c -0.195,0 -0.3575,-0.1625 -0.3575,-0.3575 v -1.7225 h 7.8325 v -3.4775 c 0,-1.17 -0.9425,-2.1125 -2.1125,-2.1125 z m -5.72,3.835 v -1.7225 c 0,-0.195 0.1625,-0.3575 0.3575,-0.3575 h 5.3625 c 0.195,0 0.3575,0.1625 0.3575,0.3575 v 1.7225 z" />
      <path
         id="path4534"
         style="font-style:normal;font-variant:normal;font-weight:normal;font-stretch:normal;font-family:Orbitron;-inkscape-font-specification:Orbitron;fill:#ffffff"
         d="m -694.40358,409.99541 c -1.17,0 -2.1125,0.9425 -2.1125,2.1125 v 5.2 c 0,0 0,0 0,0 v 2.1125 h 1.755 v -7.3125 c 0,-0.195 0.1625,-0.3575 0.3575,-0.3575 h 5.265 v -1.755 z" />
    </g>
  </g>
</svg>
